<svg width="300" height="300" xmlns="http://www.w3.org/2000/svg">
    <rect width="100%" height="100%" fill="#ffffff"/>
    <rect x="20" y="20" width="260" height="260" fill="#1a237e"/>
    <rect x="40" y="40" width="80" height="80" fill="#ffffff"/>
    <rect x="50" y="50" width="60" height="60" fill="#1a237e"/>
    <rect x="60" y="60" width="40" height="40" fill="#ffffff"/>
    <rect x="180" y="40" width="80" height="80" fill="#ffffff"/>
    <rect x="190" y="50" width="60" height="60" fill="#1a237e"/>
    <rect x="200" y="60" width="40" height="40" fill="#ffffff"/>
    <rect x="40" y="180" width="80" height="80" fill="#ffffff"/>
    <rect x="50" y="190" width="60" height="60" fill="#1a237e"/>
    <rect x="60" y="200" width="40" height="40" fill="#ffffff"/>
    <rect x="130" y="130" width="40" height="40" fill="#ffffff"/>
    <rect x="140" y="140" width="20" height="20" fill="#1a237e"/>
    <rect x="150" y="150" width="10" height="10" fill="#ffffff"/>
    <text x="150" y="295" text-anchor="middle" font-family="Arial" font-size="16" fill="#333">
        IXIMI-ZAP-001-2024
    </text>
    <text x="150" y="315" text-anchor="middle" font-family="Arial" font-size="12" fill="#666">
        Escanear para verificar autenticidad
    </text>
</svg>
